<svg width="15" height="15" viewBox="0 0 15 15" fill="none" xmlns="http://www.w3.org/2000/svg">
<g clip-path="url(#clip0_5_6109)">
<rect width="14.75" height="15" fill="white"/>
<path d="M7.37399 7.5C9.30319 7.5 10.8671 5.93442 10.8671 4.00317C10.8671 2.07193 9.30319 0.506348 7.37399 0.506348C5.44479 0.506348 3.88086 2.07193 3.88086 4.00317C3.88086 5.93442 5.44479 7.5 7.37399 7.5Z" stroke="black" stroke-width="0.999093"/>
<path d="M13.5134 13.9945C12.5898 10.6536 10.138 8.33424 7.37483 8.33424C4.61155 8.33424 2.1598 10.6537 1.23625 13.9945H13.5134ZM14.7497 14.9936H0C0.707988 10.5554 3.80996 7.33514 7.37483 7.33514C10.9396 7.33514 14.041 10.5554 14.7494 14.9921L14.7497 14.9936Z" fill="black"/>
</g>
<defs>
<clipPath id="clip0_5_6109">
<rect width="14.75" height="15" fill="white"/>
</clipPath>
</defs>
</svg>
