<?xml version="1.0" encoding="UTF-8"?>
<svg version="1.1" xmlns="http://www.w3.org/2000/svg" width="61" height="35">
<path d="M0 0 C2.5 2.3125 2.5 2.3125 5 5 C7.45057854 7.01812351 8.95696319 7.9856544 12 9 C12.309375 8.195625 12.61875 7.39125 12.9375 6.5625 C14 4 14 4 15 3 C20.73611111 2.72685185 20.73611111 2.72685185 23 3 C23.66 3.66 24.32 4.32 25 5 C25.33 4.34 25.66 3.68 26 3 C27.79133978 2.94608007 29.58313899 2.90724429 31.375 2.875 C32.37273438 2.85179687 33.37046875 2.82859375 34.3984375 2.8046875 C37 3 37 3 39 5 C39.22705078 7.43017578 39.22705078 7.43017578 39.1953125 10.4453125 C39.18886719 11.52167969 39.18242188 12.59804687 39.17578125 13.70703125 C39.15902344 14.83496094 39.14226563 15.96289062 39.125 17.125 C39.11597656 18.26066406 39.10695312 19.39632813 39.09765625 20.56640625 C39.07403199 23.37769337 39.0381601 26.18887262 39 29 C34.71 29 30.42 29 26 29 C25.505 28.01 25.505 28.01 25 27 C24.34 27.66 23.68 28.32 23 29 C17.8722467 29.56975037 17.8722467 29.56975037 15 29 C12.36761404 26.20308991 12.02875084 24.50793153 11.8125 20.6875 C11.874375 19.800625 11.93625 18.91375 12 18 C13.32 17.67 14.64 17.34 16 17 C14.68 16.01 13.36 15.02 12 14 C10.68 18.95 9.36 23.9 8 29 C1.4 29 -5.2 29 -12 29 C-12.845625 26.07125 -13.69125 23.1425 -14.5625 20.125 C-14.83263916 19.20348145 -15.10277832 18.28196289 -15.38110352 17.33251953 C-15.68939087 16.24366455 -15.68939087 16.24366455 -16.00390625 15.1328125 C-16.21861572 14.38918457 -16.4333252 13.64555664 -16.65454102 12.87939453 C-17 11 -17 11 -16 9 C-14.28420217 8.04311275 -12.56710288 7.08838397 -10.83984375 6.15234375 C-8.70976645 4.9185977 -8.70976645 4.9185977 -6.3125 2.25 C-4 0 -4 0 0 0 Z M-8 9 C-4.04 9 -0.08 9 4 9 C0.61766955 4.87286904 0.61766955 4.87286904 -2.5625 4.5 C-5.56751022 4.8356863 -5.56751022 4.8356863 -8 9 Z M-13 12 C-12 14 -12 14 -12 14 Z M21 13 C22.65 14.65 24.3 16.3 26 18 C26 15.69 26 13.38 26 11 C24.15953612 11 22.60370406 12.17228177 21 13 Z M-9 16 C-8 18 -8 18 -8 18 Z M-5 16 C-5 16.66 -5 17.32 -5 18 C-4.34 18 -3.68 18 -3 18 C-3 17.34 -3 16.68 -3 16 C-3.66 16 -4.32 16 -5 16 Z M-1 16 C-1 16.66 -1 17.32 -1 18 C-0.34 18 0.32 18 1 18 C1 17.34 1 16.68 1 16 C0.34 16 -0.32 16 -1 16 Z M4 16 C5 18 5 18 5 18 Z M-1 20 C-1 20.66 -1 21.32 -1 22 C-0.34 22 0.32 22 1 22 C1 21.34 1 20.68 1 20 C0.34 20 -0.32 20 -1 20 Z " fill="#1B1B1B" transform="translate(18,2)"/>
<path d="M0 0 C2.5 2.3125 2.5 2.3125 5 5 C7.45057854 7.01812351 8.95696319 7.9856544 12 9 C12.33 8.34 12.66 7.68 13 7 C12.36690258 12.12475705 11.31767034 16.96632574 9.9375 21.9375 C9.298125 24.268125 8.65875 26.59875 8 29 C1.4 29 -5.2 29 -12 29 C-12.845625 26.07125 -13.69125 23.1425 -14.5625 20.125 C-14.83263916 19.20348145 -15.10277832 18.28196289 -15.38110352 17.33251953 C-15.68939087 16.24366455 -15.68939087 16.24366455 -16.00390625 15.1328125 C-16.21861572 14.38918457 -16.4333252 13.64555664 -16.65454102 12.87939453 C-17 11 -17 11 -16 9 C-14.28420217 8.04311275 -12.56710288 7.08838397 -10.83984375 6.15234375 C-8.70976645 4.9185977 -8.70976645 4.9185977 -6.3125 2.25 C-4 0 -4 0 0 0 Z M-8 9 C-4.04 9 -0.08 9 4 9 C0.61766955 4.87286904 0.61766955 4.87286904 -2.5625 4.5 C-5.56751022 4.8356863 -5.56751022 4.8356863 -8 9 Z M-13 12 C-12 14 -12 14 -12 14 Z M-9 16 C-8 18 -8 18 -8 18 Z M-5 16 C-5 16.66 -5 17.32 -5 18 C-4.34 18 -3.68 18 -3 18 C-3 17.34 -3 16.68 -3 16 C-3.66 16 -4.32 16 -5 16 Z M-1 16 C-1 16.66 -1 17.32 -1 18 C-0.34 18 0.32 18 1 18 C1 17.34 1 16.68 1 16 C0.34 16 -0.32 16 -1 16 Z M4 16 C5 18 5 18 5 18 Z M-1 20 C-1 20.66 -1 21.32 -1 22 C-0.34 22 0.32 22 1 22 C1 21.34 1 20.68 1 20 C0.34 20 -0.32 20 -1 20 Z " fill="#232323" transform="translate(18,2)"/>
<path d="M0 0 C0.99 1.32 1.98 2.64 3 4 C1.02 4.66 -0.96 5.32 -3 6 C-3 4.68 -3 3.36 -3 2 C-2.01 1.34 -1.02 0.68 0 0 Z " fill="#1D1D1D" transform="translate(12,23)"/>
</svg>
