<svg viewBox="0 0 39 24" version="1.1" xmlns="http://www.w3.org/2000/svg">
    <g stroke="none" stroke-width="1" fill="none" fill-rule="evenodd">
        <g transform="translate(-168.000000, -1092.000000)">
            <g transform="translate(0.000000, 768.000000)">
                <g transform="translate(114.328139, 324.000000)">
                    <g transform="translate(54.000000, 0.000000)">
                        <rect stroke="#EFEFEF" fill="#FFFFFF" x="0.5" y="0.5" width="37" height="23" rx="4"/>
                        <g transform="translate(8.000000, 5.000000)" fill-rule="nonzero">
                            <polygon fill="#FF5F00" points="8.10280424 1.46811743 14.1091602 1.46811743 14.1091602 12.2623971 8.10280424 12.2623971" />
                            <path d="M8.48416017,6.86621065 C8.48250076,4.76017279 9.44929743,2.77032947 11.1059822,1.47002421 C8.29153545,-0.741830325 4.24987703,-0.419654585 1.82137587,2.21013498 C-0.60712529,4.83992454 -0.60712529,8.89440354 1.82137587,11.5241931 C4.24987703,14.1539827 8.29153545,14.4761584 11.1059822,12.2643039 C9.44877022,10.9635857 8.48191449,8.97291763 8.48416017,6.86621065 Z" fill="#EB001B" />
                            <path d="M21.70005,11.6032869 L21.70005,10.9818583 L21.8792873,10.9818583 L21.8792873,10.8532869 L21.4254737,10.8532869 L21.4254737,10.9818583 L21.604711,10.9818583 L21.604711,11.6032869 L21.70005,11.6032869 Z M22.5809822,11.6032869 L22.5809822,10.8532869 L22.4436941,10.8532869 L22.2835246,11.3890012 L22.1233551,10.8532869 L21.986067,10.8532869 L21.986067,11.6032869 L22.0814059,11.6032869 L22.0814059,11.0354298 L22.2301347,11.5229298 L22.3331008,11.5229298 L22.4818297,11.0354298 L22.4818297,11.6032869 L22.5809822,11.6032869 Z" fill="#F79E1B" />
                            <path d="M22.2129737,6.86621065 C22.2129737,9.49439759 20.7122277,11.8918431 18.3482661,13.040343 C15.9843044,14.1888428 13.1720904,13.8867626 11.1059822,12.2623971 C12.7619441,10.9609879 13.7288136,8.97140914 13.7288136,6.86525726 C13.7288136,4.75910538 12.7619441,2.76952661 11.1059822,1.46811743 C13.1720904,-0.156248111 15.9843044,-0.458328267 18.3482661,0.690171561 C20.7122277,1.83867139 22.2129737,4.23611693 22.2129737,6.86430387 L22.2129737,6.86621065 Z"  fill="#F79E1B" />
                        </g>
                    </g>
                </g>
            </g>
        </g>
    </g>
</svg>
