<svg viewBox="0 0 39 24" version="1.1" xmlns="http://www.w3.org/2000/svg">
    <g stroke="none" stroke-width="1" fill="none" fill-rule="evenodd">
        <g transform="translate(-114.000000, -1092.000000)">
            <rect fill="#F7F7F7" />
            <g transform="translate(0.000000, 768.000000)">
                <g transform="translate(114.328139, 324.000000)">
                    <rect stroke="#EFEFEF" fill="#FFFFFF" x="0.5" y="0.5" width="37" height="23" rx="4" />
                    <path d="M18.7983196,8.15901359 L16.9365073,16.863316 L14.6846043,16.863316 L16.5465857,8.15901359 L18.7983196,8.15901359 Z M28.2721463,13.7796365 L29.4576434,10.5107231 L30.139541,13.7796365 L28.2721463,13.7796365 Z M30.7857452,16.863316 L32.8679774,16.863316 L31.0487942,8.15901359 L29.1279439,8.15901359 C28.6950548,8.15901359 28.3303385,8.41005206 28.1687875,8.79709791 L24.7897487,16.863316 L27.1546529,16.863316 L27.6242505,15.5634645 L30.5128846,15.5634645 L30.7857452,16.863316 Z M24.9069789,14.0215401 C24.9169596,11.7244704 21.7316129,11.5970904 21.7527583,10.5707761 C21.759694,10.2588388 22.0570832,9.92660188 22.7075165,9.84168186 C23.0301111,9.80006767 23.9197414,9.76657331 24.9284627,10.2312652 L25.3229517,8.38467756 C24.7811214,8.18878635 24.083999,8 23.2166983,8 C20.9905081,8 19.4243934,9.18245212 19.4118753,10.877131 C19.3976655,12.1302934 20.5305528,12.8289382 21.3822905,13.2462643 C22.2605868,13.6728944 22.5549311,13.9466008 22.550702,14.3277259 C22.5446121,14.9116779 21.8501964,15.1701596 21.2039923,15.1799711 C20.0709358,15.197564 19.4145819,14.8737853 18.8911903,14.6298517 L18.4824916,16.5380148 C19.0094356,16.7792418 19.9804334,16.9891735 20.9859406,17 C23.3525365,17 24.9000432,15.8312501 24.9069789,14.0215401 L24.9069789,14.0215401 Z M15.5806627,8.15901359 L11.9319775,16.863316 L9.55184858,16.863316 L7.75617916,9.91662124 C7.6474071,9.48948368 7.55250644,9.33250005 7.22145368,9.15200271 C6.67996166,8.85782757 5.78593312,8.58276789 5,8.41157454 L5.05311731,8.15901359 L8.88500648,8.15901359 C9.37304287,8.15901359 9.81219104,8.4838073 9.92383888,9.04593726 L10.872338,14.0832848 L13.2149127,8.15901359 L15.5806627,8.15901359 Z" fill="#1A1F71" />
                </g>
            </g>
        </g>
    </g>
</svg>
